<svg width="30" height="30" viewBox="0 0 30 30" fill="none" xmlns="http://www.w3.org/2000/svg">
<path d="M29.6392 26.3655L19.9985 10.938V2.4H21.2487C21.5803 2.4 21.8983 2.27357 22.1327 2.04853C22.3672 1.82348 22.4989 1.51826 22.4989 1.2C22.4989 0.88174 22.3672 0.576515 22.1327 0.351472C21.8983 0.126428 21.5803 0 21.2487 0H8.74661C8.41504 0 8.09704 0.126428 7.86258 0.351472C7.62812 0.576515 7.4964 0.88174 7.4964 1.2C7.4964 1.51826 7.62812 1.82348 7.86258 2.04853C8.09704 2.27357 8.41504 2.4 8.74661 2.4H9.99682V10.938L0.356149 26.3655C0.128774 26.7294 0.00595599 27.1446 0.000211219 27.5688C-0.00553355 27.9931 0.106 28.4112 0.323446 28.7806C0.540893 29.15 0.856479 29.4575 1.23805 29.6717C1.61962 29.8859 2.05353 29.9992 2.49557 30H27.4997C27.9422 30 28.3767 29.8873 28.7589 29.6734C29.1411 29.4595 29.4574 29.1521 29.6754 28.7826C29.8934 28.413 30.0053 27.9946 29.9998 27.5699C29.9943 27.1453 29.8714 26.7297 29.6439 26.3655H29.6392ZM12.3191 11.8875C12.436 11.7015 12.4976 11.4883 12.4972 11.271V2.4H17.4981V11.271C17.4977 11.4883 17.5593 11.7015 17.6762 11.8875L23.6491 21.45C21.7738 21.8055 19.1062 21.6555 15.5618 19.9335C13.0755 18.726 10.7094 18.0855 8.49501 18.012L12.3191 11.8875ZM2.49557 27.6L6.95569 20.463C9.18262 20.202 11.6924 20.7405 14.4288 22.071C17.3981 23.5125 19.8985 24.003 21.9301 24.003C22.9633 24.0074 23.992 23.871 24.9853 23.598L27.4997 27.6H2.49557Z" fill="black"/>
</svg>
